<?xml version="1.0" standalone="no"?><!DOCTYPE svg PUBLIC "-//W3C//DTD SVG 1.1//EN" "http://www.w3.org/Graphics/SVG/1.1/DTD/svg11.dtd"><svg t="1704782102078" class="icon" viewBox="0 0 1024 1024" version="1.1" xmlns="http://www.w3.org/2000/svg" p-id="2798" id="mx_n_1704782102080" xmlns:xlink="http://www.w3.org/1999/xlink" width="32" height="32"><path d="M256.17727 256.484688a256.484688 255.997074 90 1 0 511.994148 0 256.484688 255.997074 90 1 0-511.994148 0Z" fill="#7a7a7a" p-id="2799"></path><path d="M959.3159 987.417287c0-247.220032-200.409138-474.447911-447.141556-474.447911H503.397301c-243.806737 0-438.852127 223.814585-438.852127 467.133709v3.413294a30.232035 30.232035 0 0 0 0 3.413294 32.670103 32.670103 0 0 0 33.157716 37.058624H747.204039a41.447145 41.447145 0 0 1-41.447146-41.447145v-100.448376h-98.985535a41.447145 41.447145 0 0 1 0-82.406677h100.448376v-100.448376a41.447145 41.447145 0 1 1 82.406677 0v100.448376h100.448376a41.447145 41.447145 0 1 1 0 82.406677h-100.448376v100.448376A41.447145 41.447145 0 0 1 747.204039 1023.988297h178.466532a32.670103 32.670103 0 0 0 32.670102-32.670103 31.694876 31.694876 0 0 0 0-3.413294z" fill="#7a7a7a" p-id="2800"></path></svg>