<?xml version="1.0" standalone="no"?><!DOCTYPE svg PUBLIC "-//W3C//DTD SVG 1.1//EN" "http://www.w3.org/Graphics/SVG/1.1/DTD/svg11.dtd"><svg t="1704782177780" class="icon" viewBox="0 0 1024 1024" version="1.1" xmlns="http://www.w3.org/2000/svg" p-id="2930" xmlns:xlink="http://www.w3.org/1999/xlink" width="32" height="32"><path d="M397.875225 434.147598A238.882615 238.882615 0 0 1 390.267499 373.285785a242.432888 242.432888 0 0 1 224.681525-241.418524 217.073799 217.073799 0 1 0-217.073799 304.309064zM398.382407 436.176325C197.031243 442.262506 35.240258 629.41258 35.240258 832.28529v3.04309a25.86627 25.86627 0 0 0 0 2.535909 27.894998 27.894998 0 0 0 27.387815 27.387816h182.078257a444.291233 444.291233 0 0 1 98.393264-170.413076 399.152055 399.152055 0 0 1 169.905894-111.072808A244.461615 244.461615 0 0 1 398.382407 436.176325z" fill="#7a7a7a" p-id="2931"></path><path d="M632.700386 180.556711h-3.550272A192.221892 192.221892 0 0 0 440.985676 373.285785a190.193165 190.193165 0 0 0 10.143636 58.833086v7.100545a191.71471 191.71471 0 0 0 179.542347 126.795443 189.178801 189.178801 0 0 0 50.718178-7.607727 192.221892 192.221892 0 0 0-50.718178-377.850421zM988.741991 995.090639a378.357603 378.357603 0 0 0-22.315998-125.273898v-4.057454a366.18524 366.18524 0 0 0-332.711243-246.997524h-7.100545c-193.743437 0-350.462605 179.035166-350.462605 372.778604v5.071817a25.86627 25.86627 0 0 0 25.86627 25.866271h660.857851a25.86627 25.86627 0 0 0 25.86627-25.866271 23.837543 23.837543 0 0 0 0-3.04309z m-56.804359-74.555721H861.946548v69.991085a28.909361 28.909361 0 1 1-57.311541 0v-69.991085h-70.498266a28.909361 28.909361 0 0 1 0-57.31154h69.991085v-69.991085a28.909361 28.909361 0 1 1 57.31154 0V862.209014h69.991085a28.909361 28.909361 0 1 1 0 57.311541z" fill="#7a7a7a" p-id="2932"></path></svg>