<?xml version="1.0" standalone="no"?><!DOCTYPE svg PUBLIC "-//W3C//DTD SVG 1.1//EN" "http://www.w3.org/Graphics/SVG/1.1/DTD/svg11.dtd"><svg t="1704976655538" class="icon" viewBox="0 0 1024 1024" version="1.1" xmlns="http://www.w3.org/2000/svg" p-id="2352" xmlns:xlink="http://www.w3.org/1999/xlink" width="32" height="32"><path d="M256.154553 256.485298a256.485298 255.997684 90 1 0 511.995368 0 256.485298 255.997684 90 1 0-511.995368 0Z" fill="#7a7a7a" p-id="2353"></path><path d="M959.294858 987.419638c0-247.22062-200.409615-474.449041-447.142621-474.449041H503.375173c-243.807318 0-438.853172 223.815118-438.853172 467.134821v3.413303a30.232107 30.232107 0 0 0 0 3.413302 32.670181 32.670181 0 0 0 33.157795 37.058712h828.944881a32.670181 32.670181 0 0 0 32.670181-32.67018 31.694951 31.694951 0 0 0 0-3.413303z m-134.58164-75.092654a41.447244 41.447244 0 0 1-58.513756 58.513756l-71.191737-71.191737-70.704122 70.704122a41.447244 41.447244 0 0 1-58.513756-58.513756l71.191736-71.191737-70.704122-70.216507a41.447244 41.447244 0 0 1 58.513757-58.513757l71.191736 71.191737 71.191737-71.191737a41.447244 41.447244 0 0 1 58.513757 58.513757l-71.191737 71.191737z" fill="#7a7a7a" p-id="2354"></path></svg>