<?xml version="1.0" standalone="no"?><!DOCTYPE svg PUBLIC "-//W3C//DTD SVG 1.1//EN" "http://www.w3.org/Graphics/SVG/1.1/DTD/svg11.dtd"><svg t="1705129722788" class="icon" viewBox="0 0 1024 1024" version="1.1" xmlns="http://www.w3.org/2000/svg" p-id="4509" xmlns:xlink="http://www.w3.org/1999/xlink" width="32" height="32"><path d="M289.946 707.376c-12.187 0-23.359 2.708-33.174 8.802-9.819 6.092-17.602 14.215-23.695 24.711l0-28.772-20.311 0 0 175.003 20.311 0 0-105.61c1.013-17.263 6.43-31.142 16.585-41.297 9.479-10.156 20.985-15.232 35.204-15.232 33.174 0 49.759 18.615 49.759 55.851l0 106.288 20.311 0L354.936 779.477C354.936 731.41 333.271 707.377 289.946 707.376z" fill="#7a7a7a" p-id="4510"></path><path d="M530.618 735.472c-13.88-18.955-34.527-28.095-62.283-28.095-24.711 0-44.344 9.139-59.238 27.417-14.555 17.602-21.664 38.927-21.664 64.652 0 27.759 7.446 50.436 22.678 67.361 14.557 16.589 34.191 25.051 58.899 25.051 22.341 0 40.281-6.43 54.498-19.294 11.509-10.832 19.294-24.711 23.355-41.636l-20.647 0c-4.401 13.54-10.493 23.695-18.619 30.804-9.816 8.123-22.678 12.524-38.589 12.524-18.277 0-32.495-6.093-43.327-18.28-10.493-12.185-16.247-29.109-17.263-50.434L550.59 805.542C549.573 775.416 542.803 752.057 530.618 735.472zM408.759 788.953c1.692-18.955 7.783-34.187 18.279-46.034 10.493-12.187 24.37-17.941 41.633-17.941 36.896 0 57.206 21.324 60.591 63.974L408.759 788.952z" fill="#7a7a7a" p-id="4511"></path><path d="M741.164 861.053 697.158 712.115 677.527 712.115 633.522 861.053 586.132 712.115 563.452 712.115 623.704 887.118 643 887.118 687.681 738.519 731.688 887.118 751.321 887.118 811.234 712.115 788.892 712.115Z" fill="#7a7a7a" p-id="4512"></path><path d="M703.143 523.794c73.266-33.475 123.877-103.832 123.877-185.355 0-113.896-98.479-206.297-220.015-206.297-10.13 0-19.985 0.86-29.661 2.108 16.231 9.495 31.448 20.494 44.933 33.046 94.12 7.262 168.111 81.105 168.111 171.142 0 89.78-73.486 163.313-167.157 171.038 1.283 2.891 2.017 6.115 2.017 9.464 0 1.158-0.5 2.148-0.689 3.179 16.236 8.807 31.873 18.487 46.541 29.49 82.698 17.336 152.175 67.373 192.182 134.908 17.208 4.735 33.555 10.162 48.901 16.206C874.977 617.25 798.271 550.917 703.143 523.794z" fill="#7a7a7a" p-id="4513"></path><path d="M441.91 544.725c100.588 0 189.208 47.519 241.969 119.894 2.727-0.03 5.458-0.052 8.2-0.052 12.015 0 23.889 0.303 35.6 0.887-41.309-67.31-108.812-118.626-189.628-141.66 73.306-33.475 123.921-103.832 123.921-185.355 0-113.941-98.524-206.297-220.059-206.297-121.541 0-220.065 92.356-220.065 206.297 0 81.528 50.615 151.88 123.921 185.355C218.185 560.16 123.74 667.004 113.24 795.978c-0.922 2.062-1.422 4.25-1.422 6.619 0 9.495 8.207 17.194 18.337 17.194 10.135 0 18.342-7.7 18.342-17.194l0.914 0C158.952 658.747 286.034 544.725 441.91 544.725zM258.526 338.439c0-94.899 82.105-171.913 183.384-171.913 101.23 0 183.338 77.013 183.338 171.913 0 94.981-82.109 171.947-183.338 171.947C340.63 510.387 258.526 433.419 258.526 338.439z" fill="#7a7a7a" p-id="4514"></path></svg>