<?xml version="1.0" standalone="no"?><!DOCTYPE svg PUBLIC "-//W3C//DTD SVG 1.1//EN" "http://www.w3.org/Graphics/SVG/1.1/DTD/svg11.dtd"><svg t="1703751629646" class="icon" viewBox="0 0 1024 1024" version="1.1" xmlns="http://www.w3.org/2000/svg" p-id="1389" xmlns:xlink="http://www.w3.org/1999/xlink" width="32" height="32"><path d="M714.24 384a25.6 25.6 0 0 1-24.32-27.306667 168.106667 168.106667 0 0 0-40.533333-120.32 159.146667 159.146667 0 0 0-110.933334-55.04 26.026667 26.026667 0 0 1-26.453333-29.013333 26.453333 26.453333 0 0 1 27.733333-24.32 209.493333 209.493333 0 0 1 146.773334 72.533333 220.16 220.16 0 0 1 53.333333 157.44 25.6 25.6 0 0 1-25.6 26.026667z" fill="" p-id="1390"></path><path d="M614.4 376.746667a25.6 25.6 0 0 1-24.32-27.306667 66.133333 66.133333 0 0 0-57.6-73.813333 26.026667 26.026667 0 0 1-24.32-27.306667 25.6 25.6 0 0 1 27.306667-24.32 118.186667 118.186667 0 0 1 106.24 128 26.026667 26.026667 0 0 1-27.306667 24.746667zM632.746667 896a209.066667 209.066667 0 0 1-107.946667-37.12 935.68 935.68 0 0 1-298.666667-332.373333 192 192 0 0 1-21.333333-132.693334 426.666667 426.666667 0 0 1 71.253333-150.186666 63.146667 63.146667 0 0 1 42.666667-25.173334 77.653333 77.653333 0 0 1 57.173333 17.493334 597.333333 597.333333 0 0 1 128 161.706666 60.586667 60.586667 0 0 1-12.8 80.64l-38.826666 26.453334a298.666667 298.666667 0 0 0 107.946666 120.746666l30.293334-35.84a59.306667 59.306667 0 0 1 85.333333-2.56 830.293333 830.293333 0 0 1 148.053333 149.333334 68.693333 68.693333 0 0 1-13.226666 92.586666 392.533333 392.533333 0 0 1-151.04 64.426667 156.16 156.16 0 0 1-26.88 2.56zM325.546667 269.653333s-3.413333 0-6.826667 5.12A378.453333 378.453333 0 0 0 256 407.04a143.36 143.36 0 0 0 18.773333 97.706667 890.453333 890.453333 0 0 0 277.333334 309.76 136.96 136.96 0 0 0 98.986666 28.16 351.146667 351.146667 0 0 0 125.013334-50.346667c10.24-10.24 11.093333-16.64 3.84-28.16a797.013333 797.013333 0 0 0-136.96-136.533333c-5.973333-4.693333-11.52-5.546667-12.373334-4.266667l-37.973333 44.8a37.546667 37.546667 0 0 1-52.48 4.693333 341.333333 341.333333 0 0 1-137.386667-154.026666 38.4 38.4 0 0 1 10.24-49.493334l48.64-33.706666a26.026667 26.026667 0 0 0-3.84-14.506667A571.306667 571.306667 0 0 0 343.466667 277.333333a36.266667 36.266667 0 0 0-17.92-7.68z" fill="" p-id="1391"></path></svg>