<?xml version="1.0" standalone="no"?><!DOCTYPE svg PUBLIC "-//W3C//DTD SVG 1.1//EN" "http://www.w3.org/Graphics/SVG/1.1/DTD/svg11.dtd"><svg t="1703751613606" class="icon" viewBox="0 0 1024 1024" version="1.1" xmlns="http://www.w3.org/2000/svg" p-id="940" xmlns:xlink="http://www.w3.org/1999/xlink" width="32" height="32"><path d="M512 935.68a426.666667 426.666667 0 1 1 426.666667-426.666667 426.666667 426.666667 0 0 1-426.666667 426.666667z m0-800.853333a374.186667 374.186667 0 1 0 374.186667 374.186666A374.186667 374.186667 0 0 0 512 134.826667z" fill="" p-id="941"></path><path d="M512 725.333333a218.88 218.88 0 0 1-203.093333-125.44 26.453333 26.453333 0 0 1 13.653333-34.56 26.026667 26.026667 0 0 1 34.56 13.226667A165.546667 165.546667 0 0 0 512 673.706667a165.973333 165.973333 0 0 0 157.44-100.693334 26.026667 26.026667 0 0 1 33.706667-15.36 26.453333 26.453333 0 0 1 15.36 34.133334A219.306667 219.306667 0 0 1 512 725.333333z" fill="" p-id="942"></path><path d="M332.373333 390.4m-47.786666 0a47.786667 47.786667 0 1 0 95.573333 0 47.786667 47.786667 0 1 0-95.573333 0Z" fill="" p-id="943"></path><path d="M656.64 390.4m-47.786667 0a47.786667 47.786667 0 1 0 95.573334 0 47.786667 47.786667 0 1 0-95.573334 0Z" fill="" p-id="944"></path></svg>