<?xml version="1.0" standalone="no"?><!DOCTYPE svg PUBLIC "-//W3C//DTD SVG 1.1//EN" "http://www.w3.org/Graphics/SVG/1.1/DTD/svg11.dtd"><svg t="1703751624654" class="icon" viewBox="0 0 1024 1024" version="1.1" xmlns="http://www.w3.org/2000/svg" p-id="1240" xmlns:xlink="http://www.w3.org/1999/xlink" width="32" height="32"><path d="M889.173333 352.426667V270.506667A81.066667 81.066667 0 0 0 810.666667 189.866667h-243.626667l-17.493333-27.733334a81.92 81.92 0 0 0-64-31.573333H165.973333A81.066667 81.066667 0 0 0 85.333333 213.333333v640a80.64 80.64 0 0 0 80.64 80.64h692.053334A80.64 80.64 0 0 0 938.666667 849.92V426.666667a81.066667 81.066667 0 0 0-49.493334-74.24zM810.666667 243.626667a27.306667 27.306667 0 0 1 27.306666 26.88v75.52h-157.866666a26.453333 26.453333 0 0 1-22.613334-12.373334l-56.746666-90.026666z m76.373333 606.293333a26.88 26.88 0 0 1-26.88 26.88H165.973333a26.88 26.88 0 0 1-26.88-26.88V213.333333a26.88 26.88 0 0 1 26.88-26.88h319.573334a26.88 26.88 0 0 1 19.626666 8.106667l106.666667 170.666667a80.64 80.64 0 0 0 68.266667 37.546666h177.92a27.306667 27.306667 0 0 1 26.88 27.306667z" fill="" p-id="1241"></path><path d="M251.306667 512h189.866666a27.306667 27.306667 0 0 0 0-54.186667H251.306667a27.306667 27.306667 0 0 0 0 54.186667zM677.12 616.533333h-426.666667a26.88 26.88 0 1 0 0 53.76h426.666667a26.88 26.88 0 1 0 0-53.76z" fill="" p-id="1242"></path></svg>