<?xml version="1.0" standalone="no"?><!DOCTYPE svg PUBLIC "-//W3C//DTD SVG 1.1//EN" "http://www.w3.org/Graphics/SVG/1.1/DTD/svg11.dtd"><svg t="1707975577570" class="icon" viewBox="0 0 1024 1024" version="1.1" xmlns="http://www.w3.org/2000/svg" p-id="26661" id="mx_n_1707975577570" xmlns:xlink="http://www.w3.org/1999/xlink" width="64" height="64"><path d="M863.2 817.4H165c-17.3 0-31.4-14.1-31.4-31.4v-14.9c0-62.1 39.4-116.2 97.3-135.8V484c0-121.9 78.1-229.3 192.2-267.9-4.7-11.5-7.1-23.9-7.1-36.5 0-54.1 44-98.1 98.1-98.1 54.1 0 98 44 98 98.1 0 12.6-2.4 24.9-7.1 36.5 114.2 38.6 192.2 146 192.2 267.9v155.9c58.7 24.5 97.3 81.8 97.3 146.1 0.1 17.3-14 31.4-31.3 31.4z m-696.7-32.9h695.1c-0.7-53.5-35-100.6-86-117.5l-11.3-3.7V484c0-113.9-77.1-213.4-187.4-242l-22.9-5.9 13.5-19.4c7.7-11 11.7-23.8 11.7-37.1 0-35.9-29.2-65.1-65.1-65.1-35.9 0-65.1 29.2-65.1 65.1 0 13.3 4 26.1 11.7 37.1l13.5 19.4-22.9 5.9c-110.4 28.6-187.5 128.1-187.5 242v176.7l-12.6 3c-49.9 12-84.7 56.2-84.7 107.4v13.4zM517.2 937.5c-52.7 0-95.6-42.9-95.6-95.6h32.9c0 34.6 28.1 62.7 62.7 62.7s62.7-28.1 62.7-62.7h32.9c0 52.7-42.9 95.6-95.6 95.6z" fill="" p-id="26662"></path></svg>