<?xml version="1.0" standalone="no"?><!DOCTYPE svg PUBLIC "-//W3C//DTD SVG 1.1//EN" "http://www.w3.org/Graphics/SVG/1.1/DTD/svg11.dtd"><svg t="1704784437817" class="icon" viewBox="0 0 1024 1024" version="1.1" xmlns="http://www.w3.org/2000/svg" p-id="1088" id="mx_n_1704784437818" xmlns:xlink="http://www.w3.org/1999/xlink" width="32" height="32"><path d="M503.04 896a341.333333 341.333333 0 0 1-166.4-640A34.986667 34.986667 0 0 1 384 270.933333a35.413333 35.413333 0 0 1-13.226667 47.786667 270.933333 270.933333 0 1 0 264.533334 0 34.56 34.56 0 0 1-13.653334-47.36 34.986667 34.986667 0 0 1 47.786667-15.36 341.333333 341.333333 0 0 1-166.4 640z" fill="" p-id="1089"></path><path d="M503.04 443.306667a34.986667 34.986667 0 0 1-33.706667-34.986667V162.986667a34.986667 34.986667 0 0 1 33.706667-34.986667 34.986667 34.986667 0 0 1 34.56 34.986667v245.333333a34.986667 34.986667 0 0 1-34.56 34.986667z" fill="" p-id="1090"></path></svg>