<?xml version="1.0" standalone="no"?><!DOCTYPE svg PUBLIC "-//W3C//DTD SVG 1.1//EN" "http://www.w3.org/Graphics/SVG/1.1/DTD/svg11.dtd"><svg t="1703666618545" class="icon" viewBox="0 0 1024 1024" version="1.1" xmlns="http://www.w3.org/2000/svg" p-id="1309" width="32" height="32" xmlns:xlink="http://www.w3.org/1999/xlink"><path d="M426.666667 881.92h-4.266667a29.013333 29.013333 0 0 1-22.613333-21.76c-6.4-26.88-23.04-100.693333-23.04-100.693333H242.773333A114.773333 114.773333 0 0 1 128 643.84V327.68A115.2 115.2 0 0 1 242.773333 213.333333h495.786667A115.2 115.2 0 0 1 853.333333 327.68v316.16a114.773333 114.773333 0 0 1-114.773333 114.773333h-209.92l-76.373333 110.506667a29.013333 29.013333 0 0 1-25.6 12.8zM242.773333 262.4a65.28 65.28 0 0 0-65.28 65.28v316.16a64.853333 64.853333 0 0 0 65.28 65.28h133.12a51.2 51.2 0 0 1 49.066667 38.4s6.4 28.16 12.8 55.466667l49.92-72.96a50.773333 50.773333 0 0 1 42.666667-20.906667h209.92a64.853333 64.853333 0 0 0 65.28-65.28V327.68a65.28 65.28 0 0 0-65.28-65.28z" fill="" p-id="1310"></path><path d="M317.44 472.746667m-46.933333 0a46.933333 46.933333 0 1 0 93.866666 0 46.933333 46.933333 0 1 0-93.866666 0Z" fill="" p-id="1311"></path><path d="M496.213333 472.746667m-46.933333 0a46.933333 46.933333 0 1 0 93.866667 0 46.933333 46.933333 0 1 0-93.866667 0Z" fill="" p-id="1312"></path><path d="M675.413333 472.746667m-46.933333 0a46.933333 46.933333 0 1 0 93.866667 0 46.933333 46.933333 0 1 0-93.866667 0Z" fill="" p-id="1313"></path></svg>