<?xml version="1.0" standalone="no"?><!DOCTYPE svg PUBLIC "-//W3C//DTD SVG 1.1//EN" "http://www.w3.org/Graphics/SVG/1.1/DTD/svg11.dtd"><svg t="1703751620383" class="icon" viewBox="0 0 1024 1024" version="1.1" xmlns="http://www.w3.org/2000/svg" p-id="1091" xmlns:xlink="http://www.w3.org/1999/xlink" width="32" height="32"><path d="M839.68 85.333333H184.32A98.986667 98.986667 0 0 0 85.333333 184.32v655.36A98.986667 98.986667 0 0 0 184.32 938.666667h655.36A98.986667 98.986667 0 0 0 938.666667 839.68V184.32A98.986667 98.986667 0 0 0 839.68 85.333333zM184.32 143.36h655.36a42.666667 42.666667 0 0 1 42.666667 42.666667v433.066666l-144.64-101.546666a71.253333 71.253333 0 0 0-85.333334 3.413333l-150.186666 128L304.64 469.333333a54.613333 54.613333 0 0 0-75.093333 0l-85.333334 81.92v-366.933333a42.666667 42.666667 0 0 1 40.106667-40.96z m-42.666667 696.32v-209.92L267.52 512l189.013333 174.933333-228.693333 193.706667h-42.666667a42.666667 42.666667 0 0 1-41.813333-40.96z m696.32 42.666667H317.44l372.053333-315.306667a12.373333 12.373333 0 0 1 13.226667 0l177.92 125.013333v149.76a42.666667 42.666667 0 0 1-40.96 38.826667z" fill="" p-id="1092"></path><path d="M750.08 341.333333a48.213333 48.213333 0 1 0-48.213333-48.213333A48.213333 48.213333 0 0 0 750.08 341.333333z" fill="" p-id="1093"></path></svg>