<?xml version="1.0" standalone="no"?><!DOCTYPE svg PUBLIC "-//W3C//DTD SVG 1.1//EN" "http://www.w3.org/Graphics/SVG/1.1/DTD/svg11.dtd"><svg t="1703751634162" class="icon" viewBox="0 0 1024 1024" version="1.1" xmlns="http://www.w3.org/2000/svg" p-id="1538" xmlns:xlink="http://www.w3.org/1999/xlink" width="32" height="32"><path d="M488.106667 529.066667l-155.733334-89.6a8.533333 8.533333 0 0 0-12.8 7.253333v179.626667a8.533333 8.533333 0 0 0 12.8 7.253333l155.733334-89.6a8.96 8.96 0 0 0 0-14.933333z" fill="" p-id="1539"></path><path d="M919.466667 329.813333a38.826667 38.826667 0 0 0-37.973334 0l-144.64 75.093334V322.986667a77.653333 77.653333 0 0 0-77.226666-77.653334H162.56A77.653333 77.653333 0 0 0 85.333333 322.986667v415.146666a77.226667 77.226667 0 0 0 77.226667 77.226667h497.066667a77.226667 77.226667 0 0 0 77.226666-77.226667v-62.293333l145.92 72.533333a36.266667 36.266667 0 0 0 17.066667 4.266667 39.253333 39.253333 0 0 0 20.48-5.973333 37.973333 37.973333 0 0 0 18.346667-32.853334V363.52a38.4 38.4 0 0 0-19.2-33.706667z m-234.24 408.32a25.6 25.6 0 0 1-25.6 25.6H162.56a25.6 25.6 0 0 1-25.6-25.6V322.986667a26.026667 26.026667 0 0 1 25.6-24.32h497.066667a26.026667 26.026667 0 0 1 25.6 26.026666z m201.813333-45.226666l-150.186667-74.666667v-154.88L887.04 384z" fill="" p-id="1540"></path></svg>